<?xml version="1.0" standalone="no"?>
<!DOCTYPE svg PUBLIC "-//W3C//DTD SVG 20010904//EN"
 "http://www.w3.org/TR/2001/REC-SVG-20010904/DTD/svg10.dtd">
<svg version="1.0" xmlns="http://www.w3.org/2000/svg"
 width="609.000000pt" height="609.000000pt" viewBox="0 0 609.000000 609.000000"
 preserveAspectRatio="xMidYMid meet">
<metadata>
Created by potrace 1.11, written by Peter Selinger 2001-2013
</metadata>
<g transform="translate(0.000000,609.000000) scale(0.100000,-0.100000)"
fill="#000000" stroke="none">
<path d="M2565 5955 c-486 -85 -940 -289 -1325 -595 -135 -106 -364 -335 -470
-470 -325 -409 -530 -886 -612 -1420 -32 -210 -32 -610 0 -820 81 -529 291
-1015 612 -1420 107 -135 335 -364 470 -470 411 -326 883 -529 1420 -612 210
-32 610 -32 820 0 537 83 1009 286 1420 612 135 106 364 335 470 470 327 412
534 895 612 1424 32 217 32 595 0 812 -78 529 -285 1012 -612 1424 -106 135
-335 363 -470 470 -391 310 -864 520 -1351 600 -109 18 -168 20 -489 19 -334
0 -376 -2 -495 -24z m910 -64 c186 -28 310 -57 470 -108 440 -142 821 -376
1150 -707 153 -153 234 -252 354 -431 244 -363 390 -750 458 -1210 13 -90 17
-184 17 -375 0 -191 -4 -285 -17 -375 -68 -460 -214 -847 -458 -1210 -120
-179 -201 -278 -354 -431 -451 -454 -994 -724 -1650 -820 -168 -25 -581 -25
-750 -1 -653 96 -1200 368 -1650 821 -153 153 -234 252 -354 431 -244 363
-390 750 -458 1210 -24 169 -24 581 0 750 80 542 281 1010 613 1425 96 120
310 332 434 430 466 370 953 562 1585 624 104 10 485 -4 610 -23z"/>
<path d="M3215 5594 c-114 -93 -195 -174 -287 -289 -97 -119 -234 -325 -247
-369 -9 -33 -89 -217 -179 -411 -30 -66 -61 -139 -68 -163 -7 -23 -20 -52 -27
-63 -13 -18 -15 -12 -22 68 -9 116 -46 258 -92 356 -30 64 -51 92 -113 150
-92 86 -215 162 -296 184 -86 22 -187 14 -260 -22 -59 -29 -184 -144 -184
-170 0 -7 -11 -26 -24 -42 -43 -52 -127 -241 -160 -363 -43 -157 -62 -380 -47
-545 15 -167 34 -245 136 -555 51 -157 95 -298 98 -315 3 -16 9 -38 13 -49 6
-16 4 -17 -17 -11 -72 22 -134 50 -176 78 -27 18 -61 39 -76 47 -32 16 -167
154 -167 171 0 6 -16 29 -35 52 -49 57 -149 264 -181 372 -34 120 -44 216 -51
495 -3 135 -9 240 -15 248 -13 16 -53 16 -65 0 -27 -34 -109 -346 -138 -528
-26 -155 -31 -533 -11 -669 9 -57 14 -106 12 -108 -2 -2 -12 20 -21 49 -9 29
-38 96 -64 148 -42 87 -48 95 -75 95 -53 0 -54 -18 -8 -202 23 -92 49 -197 58
-233 42 -174 209 -644 251 -705 7 -11 13 -27 13 -36 0 -25 67 -165 150 -314
40 -71 88 -159 107 -194 37 -71 52 -93 128 -196 29 -38 72 -99 96 -135 50 -75
239 -292 314 -362 140 -130 259 -227 308 -252 30 -15 85 -47 122 -72 131 -85
270 -157 428 -219 174 -69 242 -85 352 -85 118 0 168 22 242 105 71 79 76 104
75 350 0 268 -8 315 -140 915 -83 372 -107 513 -122 715 -6 82 -16 155 -22
162 -13 17 -53 17 -65 1 -5 -7 -15 -56 -22 -108 -67 -498 -209 -1042 -305
-1163 -7 -10 -45 -27 -82 -37 -66 -19 -73 -19 -159 -4 -118 21 -248 85 -382
186 -56 43 -106 78 -110 78 -12 0 -326 315 -333 333 -3 8 -34 50 -70 92 -86
103 -180 228 -180 240 0 6 -13 26 -28 45 -64 78 -104 164 -46 98 61 -68 239
-149 369 -167 191 -25 231 -25 498 9 150 18 420 124 564 222 23 15 46 28 52
28 24 0 169 162 243 270 86 127 144 347 193 735 33 253 57 397 102 610 20 94
39 195 44 225 12 89 110 455 199 740 23 74 46 155 50 180 5 25 29 103 54 175
48 136 53 164 34 183 -23 23 -54 11 -133 -54z m-13 -186 c-11 -35 -23 -76 -25
-93 -3 -16 -24 -91 -47 -165 -88 -282 -187 -650 -199 -740 -5 -30 -24 -131
-44 -225 -45 -213 -69 -357 -102 -610 -52 -406 -109 -616 -207 -756 -56 -78
-174 -209 -190 -209 -5 0 -28 -13 -51 -28 -144 -98 -414 -204 -564 -222 -158
-20 -257 -29 -282 -25 -14 2 -69 9 -121 15 -104 13 -217 52 -299 103 -76 48
-207 172 -249 235 -90 133 -166 327 -205 517 -19 94 -22 142 -22 330 0 226 13
348 54 523 l18 76 6 -100 c13 -187 26 -279 51 -369 31 -105 131 -313 178 -370
19 -22 40 -53 48 -68 18 -35 195 -207 213 -207 8 0 22 -8 31 -19 9 -10 47 -32
84 -49 118 -54 243 -77 270 -50 26 26 21 47 -123 493 -101 312 -120 392 -135
549 -25 259 60 621 191 814 21 31 39 61 39 65 0 20 50 72 103 107 116 78 209
74 359 -17 126 -76 187 -137 231 -230 60 -128 88 -253 94 -428 3 -82 10 -156
16 -162 14 -19 61 -16 79 5 17 18 108 202 108 217 0 5 27 68 59 139 120 265
184 412 193 443 11 41 177 291 218 329 16 16 30 34 30 41 0 16 198 218 206
211 3 -4 -3 -35 -14 -70z m-2554 -2675 c23 -40 42 -77 42 -83 0 -6 8 -23 17
-38 25 -39 113 -175 169 -261 27 -41 57 -89 68 -105 25 -42 145 -204 154 -208
13 -6 92 -106 92 -116 0 -12 359 -372 371 -372 6 0 56 -35 112 -78 134 -101
264 -165 382 -186 116 -21 155 -20 240 4 82 23 117 56 170 160 53 105 152 471
201 745 l18 100 22 -125 c12 -69 52 -260 89 -425 124 -559 136 -634 137 -861
0 -112 -4 -186 -12 -211 -19 -56 -66 -111 -121 -138 -88 -45 -188 -31 -413 59
-63 25 -116 46 -118 46 -11 0 -240 127 -298 165 -36 24 -93 58 -127 76 -143
79 -448 375 -583 568 -30 43 -78 109 -106 147 -77 105 -90 126 -127 195 -19
35 -67 123 -107 194 -79 142 -150 289 -150 311 0 7 -9 30 -19 51 -43 84 -222
565 -221 593 0 3 18 -26 39 -65 20 -38 56 -102 79 -142z"/>
<path d="M1723 4469 c-54 -26 -177 -157 -209 -220 -48 -95 -74 -196 -74 -286
0 -49 6 -97 14 -116 37 -87 126 -121 321 -121 115 0 136 2 178 22 92 44 134
179 124 401 -7 177 -46 270 -132 315 -60 31 -167 34 -222 5z m149 -71 c73 -22
115 -106 125 -249 7 -99 -8 -201 -39 -264 -30 -62 -75 -81 -193 -78 -54 1
-114 9 -150 20 -50 16 -63 24 -77 53 -10 19 -18 56 -18 81 0 51 37 174 74 247
34 66 117 156 168 181 50 24 57 25 110 9z"/>
<path d="M3401 5557 c-17 -21 -221 -815 -221 -862 0 -13 -27 -135 -60 -272
-33 -136 -71 -295 -85 -353 -13 -58 -40 -171 -60 -252 -19 -81 -38 -167 -41
-190 -3 -24 -19 -115 -35 -203 -62 -349 -84 -626 -75 -930 7 -237 23 -383 60
-565 15 -69 31 -150 37 -180 27 -134 107 -330 193 -474 33 -56 68 -115 76
-131 19 -38 238 -251 294 -288 65 -42 227 -95 329 -108 104 -14 263 -1 399 32
46 11 107 24 135 29 73 12 303 116 407 184 47 31 90 56 95 56 32 0 295 235
452 405 97 104 189 229 189 256 0 6 13 34 30 60 16 27 57 112 91 190 142 329
153 401 154 1004 0 438 -14 740 -44 978 -23 175 -41 221 -88 225 -60 6 -64
-12 -93 -428 -24 -334 -94 -605 -200 -774 -53 -84 -152 -189 -490 -521 -121
-119 -179 -184 -226 -256 -86 -130 -97 -158 -98 -254 -1 -66 3 -86 21 -115 26
-42 83 -98 136 -132 l38 -26 -63 -15 c-159 -39 -437 -63 -565 -49 -232 26
-307 48 -446 130 -164 96 -311 302 -365 512 -31 117 -65 362 -76 545 l-6 90
24 -85 c35 -131 62 -196 124 -298 31 -52 63 -105 70 -118 21 -38 137 -135 228
-191 100 -61 182 -83 309 -83 116 0 214 22 332 74 201 89 338 188 487 352 80
88 216 264 216 279 0 3 33 67 73 142 75 139 177 377 177 410 0 10 13 59 29
108 39 120 95 343 120 485 38 207 23 388 -42 517 -54 105 -172 232 -282 304
-184 120 -539 231 -788 245 l-92 5 -130 -145 c-71 -80 -132 -152 -135 -160 -3
-8 -35 -51 -73 -95 -85 -102 -177 -227 -177 -240 0 -5 -17 -31 -37 -58 -48
-62 -179 -268 -199 -313 -9 -19 -38 -80 -64 -135 -59 -122 -103 -232 -136
-339 l-24 -81 4 75 c14 211 49 615 67 770 38 326 129 887 195 1207 4 21 2 38
-6 48 -15 19 -54 20 -69 2z m1059 -653 c271 -54 552 -177 669 -293 53 -53 110
-129 138 -184 34 -67 63 -188 63 -261 0 -112 -72 -451 -141 -661 -16 -49 -29
-98 -29 -107 0 -34 -101 -269 -175 -407 -41 -78 -75 -143 -75 -146 0 -14 -133
-187 -203 -264 -135 -149 -273 -246 -469 -331 -216 -94 -380 -91 -546 9 -89
53 -177 124 -195 157 -7 12 -37 64 -69 115 -64 107 -88 165 -123 298 -83 318
-41 620 140 996 29 61 60 126 69 145 20 45 151 251 199 313 20 27 37 53 37 58
0 11 68 103 173 233 42 52 77 99 77 104 0 5 21 31 48 58 26 28 78 85 115 127
l69 77 51 -6 c29 -3 108 -17 177 -30z m-1253 -516 c-3 -8 -6 -5 -6 6 -1 11 2
17 5 13 3 -3 4 -12 1 -19z m-17 -139 c-24 -248 -51 -589 -61 -774 -15 -255 -6
-789 15 -935 51 -350 62 -395 133 -530 99 -190 225 -314 413 -407 179 -88 481
-113 820 -68 126 17 345 69 368 87 16 13 16 63 0 75 -7 6 -35 18 -62 26 -69
23 -144 74 -177 120 -34 46 -39 114 -14 174 39 92 146 231 286 368 500 492
531 531 598 732 75 226 119 494 122 743 1 117 19 30 29 -144 5 -89 15 -246 21
-351 14 -239 6 -744 -15 -920 -9 -83 -26 -161 -44 -216 -40 -115 -145 -358
-182 -418 -17 -26 -30 -55 -30 -62 0 -27 -88 -144 -186 -250 -152 -163 -384
-369 -416 -369 -4 0 -48 -26 -96 -57 -104 -68 -331 -171 -405 -183 -28 -5 -90
-18 -137 -29 -130 -31 -251 -42 -336 -30 -87 12 -251 68 -306 104 -53 35 -241
217 -258 251 -8 15 -43 74 -76 130 -86 144 -166 340 -193 474 -6 30 -22 111
-37 180 -87 423 -82 867 15 1415 16 88 32 179 35 203 4 24 20 100 37 170 16
70 43 181 58 247 69 288 85 354 88 351 1 -1 -2 -49 -7 -107z"/>
<path d="M4239 4684 c-31 -33 -56 -69 -178 -250 -103 -153 -124 -192 -184
-339 -65 -158 -81 -247 -74 -414 4 -113 9 -149 32 -213 51 -148 148 -259 248
-288 137 -38 321 31 440 165 107 120 200 277 226 381 5 21 21 76 35 122 70
232 90 433 53 540 -22 61 -97 165 -135 187 -151 84 -258 122 -372 132 -62 5
-66 4 -91 -23z m175 -80 c93 -23 219 -87 269 -136 58 -58 90 -140 90 -228 0
-71 -30 -224 -69 -353 -14 -45 -30 -100 -35 -121 -25 -100 -124 -270 -217
-370 -23 -25 -44 -46 -46 -46 -2 0 -30 -16 -62 -35 -91 -55 -154 -72 -212 -56
-100 26 -162 96 -215 245 -38 108 -47 237 -23 356 17 83 83 257 133 354 23 44
152 240 201 306 11 14 31 44 47 67 30 47 20 46 139 17z"/>
<path d="M5004 2210 c-49 -16 -71 -31 -112 -74 -50 -53 -52 -57 -52 -111 0
-61 20 -108 67 -161 54 -60 85 -74 161 -74 l70 0 39 44 c22 25 44 62 51 83 51
176 56 250 17 288 -22 22 -32 25 -102 24 -48 0 -102 -8 -139 -19z m182 -74 c5
-13 -12 -93 -38 -176 -29 -95 -82 -116 -151 -59 -37 31 -77 94 -77 123 0 9 14
31 31 51 49 55 220 100 235 61z"/>
</g>
</svg>
